<svg enable-background="new 0 0 512 512" viewBox="0 0 512 512" xmlns="http://www.w3.org/2000/svg"><path d="m256 0c-141.386 0-256 114.613-256 256s114.614 256 256 256c141.387 0 256-114.613 256-256s-114.613-256-256-256zm128.29 259.396-121.992 116.064c-11.79 11.226-30.435 10.767-41.653-1.032-11.218-11.79-10.75-30.452 1.032-41.653l49.726-47.306h-117.798c-16.282 0-29.467-13.186-29.467-29.468s13.186-29.46 29.467-29.46h117.799l-49.726-47.314c-11.782-11.193-12.25-29.863-1.032-41.644 11.218-11.798 29.863-12.267 41.653-1.032l121.991 116.054c.928.887 1.452 2.113 1.452 3.395s-.524 2.508-1.452 3.396z" fill="#fff"/></svg>